<svg viewBox="0 0 700 240" xmlns="http://www.w3.org/2000/svg">
  <g>
    <polygon fill="#FDBC3D"
      points="90.69407653808594,107.49795532226562 89.71302795410156,107.88874816894531 69.1054916381836,116.11723327636719 75.43709564208984,122.66523742675781 " />
    <path fill="#8EC63F"
      d="m61.13858,77.91426l-14.50614,15.08447l10.26645,10.54809c8.64873,-7.16839 17.83252,-10.5023 18.65299,-10.78834l-14.4133,-14.84423z" />
    <polygon fill="#208ECB"
      points="61.138580322265625,77.91426086425781 46.36711883544922,63.246917724609375 32.139488220214844,78.04661560058594 46.63246154785156,92.99873352050781 " />
    <path fill="#273C8B"
      d="m40.76689,57.47921l-6.9432,2.79133c-4.48683,1.80339 -8.41602,4.35008 -11.74178,7.41741l10.0582,10.35866l14.22763,-14.7997l-5.60085,-5.7677z" />
    <path fill="#EE4649"
      d="m119.07406,138.12796l-0.24338,-0.25091l-5.65229,5.67612c1.89622,-1.5161 4.28673,-3.66009 5.89567,-5.42522z" />
    <path fill="#F6944E"
      d="m102.08834,150.0874l3.70839,-1.87552c2.6458,-1.33858 5.10782,-2.90424 7.38166,-4.6587l5.65229,-5.67612l-14.31106,-15.2852l-14.49296,15.07193l12.06168,12.42362z" />
    <polygon fill="#FFC951"
      points="90.27882385253906,107.92576599121094 75.43709564208984,122.66523742675781 90.0260238647461,137.66439819335938 104.51899719238281,122.59184265136719 " />
    <path fill="#F6CC18"
      d="m69.08729,116.12475l-11.25627,4.49373c-3.3013,0.97226 -6.09639,2.84214 -8.43358,5.08085l11.54733,11.89169l14.49296,-14.92578l-6.35043,-6.54049z" />
    <path fill="#C5D82D"
      d="m56.88573,103.55874l-10.25265,-10.56001l-14.6341,14.92703l11.78443,11.99143c3.30381,-6.888 8.17389,-12.27182 13.10232,-16.35845z" />
    <polygon fill="#0D77B3"
      points="32.139488220214844,78.04661560058594 17.633346557617188,92.98619079589844 31.998348236083984,107.92576599121094 46.63246154785156,92.99873352050781 " />
    <path fill="#2A377E"
      d="m32.13948,78.04661l-10.0582,-10.35866c-5.43902,5.02251 -9.24526,11.47205 -11.09319,18.45477l6.64462,6.84346l14.50676,-14.93958z" />
    <path fill="#DA2128"
      d="m94.82649,162.45393l-4.87134,5.01687l14.80848,15.39685l0,0c-0.63166,-1.94201 -1.60517,-4.43727 -2.57931,-6.30715l-7.35782,-14.10657z" />
    <polygon fill="#F8A561"
      points="91.23915100097656,155.57534790039062 102.0720443725586,150.0955810546875 90.0260238647461,137.66439819335938 75.51988983154297,152.60398864746094 89.95577239990234,167.4707794189453 94.82649993896484,162.4539337158203 " />
    <polygon fill="#FDBC3D"
      points="75.43709564208984,122.66523742675781 60.944129943847656,137.5910186767578 75.51988983154297,152.60398864746094 90.0260238647461,137.66439819335938 " />
    <path fill="#FAD412"
      d="m49.39743,125.69932c-6.71048,6.47275 -9.66428,16.04733 -9.66428,16.04733c-0.29983,-4.60538 0.05896,-8.82939 0.9064,-12.69773l-8.51262,8.7422l14.31106,14.73948l14.50614,-14.93958l-11.5467,-11.89169z" />
    <path fill="#C4D52D"
      d="m43.78278,119.91719l-11.78443,-11.99143l-13.2905,13.68693l3.70776,6.17856l9.71069,10.00049l8.52014,-8.77607c0.71571,-3.24923 1.82346,-6.34165 3.13633,-9.09848z" />
    <path fill="#1B80C1"
      d="m17.63335,92.98619l-7.63821,7.71975c0.64985,5.10029 2.34911,10.30095 5.19313,15.03994l3.51959,5.86681l13.2905,-13.68693l-14.365,-14.93958z" />
    <path fill="#1A4685"
      d="m10.98873,86.14272c-1.22003,4.66748 -1.59702,9.68372 -0.99296,14.56322l7.63821,-7.71975l-6.64525,-6.84346z" />
    <path fill="#B12026"
      d="m89.95578,197.34995l12.50265,13.02203c4.14246,-8.35455 5.14734,-18.25467 2.30645,-27.50433l-0.30234,-0.31112l-14.50676,14.79342z" />
    <polygon fill="#E42028"
      points="89.95577239990234,167.4707794189453 75.51988983154297,182.48313903808594 89.95577239990234,197.34996032714844 104.4619140625,182.55653381347656 " />
    <polygon fill="#F16B4E"
      points="75.51988983154297,152.60398864746094 60.944129943847656,167.4707794189453 75.51988983154297,182.48313903808594 89.95577239990234,167.4707794189453 " />
    <polygon fill="#FAD412"
      points="60.944129943847656,137.5910186767578 46.43798828125,152.5305938720703 60.944129943847656,167.4707794189453 75.51988983154297,152.60398864746094 " />
    <polygon fill="#FFC951"
      points="32.126949310302734,137.791748046875 29.834278106689453,140.15277099609375 40.76689529418945,158.37168884277344 46.43798828125,152.5305938720703 " />
    <polygon fill="#FFC951"
      points="22.416244506835938,127.79063415527344 29.834278106689453,140.15277099609375 32.126949310302734,137.791748046875 " />
    <path fill="#981C20"
      d="m102.4578,210.37135l-12.50265,-13.02203l-14.50551,14.93958l12.9179,13.30367c6.25383,-3.75105 11.0292,-9.09033 14.09026,-15.22122z" />
    <polygon fill="#C92039"
      points="75.51988983154297,182.48313903808594 62.92943572998047,195.30569458007812 69.35262298583984,206.00997924804688 75.45026397705078,212.28953552246094 89.95577239990234,197.34996032714844 " />
    <polygon fill="#F05B41"
      points="60.944129943847656,167.4707794189453 51.84815216064453,176.83900451660156 62.92943572998047,195.30569458007812 75.51988983154297,182.48313903808594 " />
    <polygon fill="#F6CC18"
      points="46.43798828125,152.5305938720703 40.76689529418945,158.37168884277344 51.84815216064453,176.83900451660156 60.944129943847656,167.4707794189453 " />
    <path fill="#7A1319"
      d="m74.01069,213.77176l8.9034,14.83796l4.1042,-2.23683c0.42842,-0.23334 0.934,-0.53318 1.34925,-0.77969l-12.9179,-13.30367l-1.43895,1.48223z" />
    <polygon fill="#981C20"
      points="69.35262298583984,206.00997924804688 74.01068115234375,213.77175903320312 75.45026397705078,212.28953552246094 " />
    <path fill="#15796E"
      d="m147.84232,48.09407l10.65285,-10.9715c0.50808,-2.27321 0.82046,-4.59597 0.94278,-6.93944l-11.41372,-11.75558l-14.48042,14.93958l14.29851,14.72693z" />
    <polygon fill="#29B364"
      points="133.5306396484375,33.35395812988281 148.0242462158203,18.427555084228516 145.2874755859375,15.46310043334961 124.33619689941406,23.885387420654297 " />
    <path fill="#21A29F"
      d="m151.81856,52.18886c3.05792,-4.33378 5.434,-9.93212 6.67724,-15.06628l-10.65285,10.9715l3.97561,4.09479z" />
    <path fill="#12827F"
      d="m159.43795,30.18314c0.30736,-6.28018 -0.78283,-12.86207 -3.48822,-19.00614l-1.41009,0.56705l-6.51603,6.68414l11.41435,11.75495z" />
    <polygon fill="#12827F"
      points="154.54026794433594,11.744049072265625 145.2874755859375,15.46310043334961 148.0242462158203,18.427555084228516 " />
    <polygon fill="#0C6355"
      points="133.336181640625,63.03364562988281 147.84231567382812,48.09407043457031 133.5306396484375,33.38093185424805 119.03767395019531,48.307342529296875 " />
    <polygon fill="#1B974D"
      points="104.53153991699219,33.367759704589844 119.03767395019531,48.307342529296875 133.51808166503906,33.367759704589844 124.3179931640625,23.892292022705078 106.95467376708984,30.87249755859375 " />
    <polygon fill="#16669F"
      points="106.95467376708984,30.87249755859375 103.4695816040039,32.2731819152832 104.53153991699219,33.367759704589844 " />
    <path fill="#44BFBD"
      d="m135.90045,65.67443c6.56998,-3.18274 11.9632,-7.88535 15.91811,-13.48558l-3.97623,-4.09479l-14.50614,14.93958l2.56426,2.64079z" />
    <polygon fill="#0D5650"
      points="115.70941162109375,74.75910949707031 126.76182556152344,69.8043441772461 133.336181640625,63.03364562988281 119.03767395019531,48.307342529296875 104.53153991699219,63.246917724609375 " />
    <polygon fill="#3FAF49"
      points="119.03767395019531,48.307342529296875 104.53153991699219,33.367759704589844 89.95577239990234,48.235198974609375 104.51899719238281,63.23374938964844 " />
    <polygon fill="#0D77B3"
      points="104.53153991699219,33.367759704589844 103.4695816040039,32.2731819152832 82.50072479248047,40.7030029296875 89.95577239990234,48.235198974609375 " />
    <path fill="#0C6355"
      d="m134.76572,66.21702c0.35252,-0.15744 0.7891,-0.37573 1.13472,-0.54258l-2.56426,-2.64079l-6.57374,6.7707l8.00328,-3.58733z" />
    <polygon fill="#12827F"
      points="115.70941162109375,74.75910949707031 104.53153991699219,63.246917724609375 90.0260238647461,78.18649291992188 95.49514770507812,83.81995391845703 " />
    <polygon fill="#4EB648"
      points="104.53153991699219,63.246917724609375 89.95577239990234,48.235198974609375 75.51988983154297,63.246917724609375 90.01286315917969,78.1739501953125 " />
    <polygon fill="#16669F"
      points="89.95577239990234,48.235198974609375 82.50072479248047,40.7030029296875 61.63349151611328,49.09142303466797 75.51988983154297,63.246917724609375 " />
    <path fill="#FBB139"
      d="m129.52555,119.01205c1.9025,-7.14392 2.10887,-15.01861 0.35315,-22.53827l-11.04802,11.37922l10.69487,11.15905z" />
    <path fill="#E2B523"
      d="m110.61915,99.54174l8.21153,8.31126l11.04802,-11.37922c-0.32869,-1.38877 -0.72136,-2.77251 -1.18616,-4.14936l-18.07339,7.21731z" />
    <polygon fill="#189590"
      points="90.0260238647461,78.18649291992188 76.1277084350586,92.50068664550781 95.49514770507812,83.81995391845703 " />
    <polygon fill="#8EC63F"
      points="76.08255004882812,92.52137756347656 90.0260238647461,78.18649291992188 75.51988983154297,63.246917724609375 61.138580322265625,77.91426086425781 75.5518798828125,92.75849151611328 " />
    <polygon fill="#0D77B3"
      points="75.51988983154297,63.246917724609375 61.63349151611328,49.09142303466797 59.36907196044922,50.0015869140625 46.36711883544922,63.246917724609375 61.138580322265625,77.91426086425781 " />
    <polygon fill="#1953A2"
      points="59.36907196044922,50.0015869140625 40.76689529418945,57.479217529296875 46.36711883544922,63.246917724609375 " />
    <path fill="#ED3551"
      d="m119.32434,137.84004c0.88507,-0.98794 2.14964,-2.59061 2.94187,-3.64629l-3.17083,3.41107l0.22895,0.23522z" />
    <path fill="#F8A561"
      d="m118.83068,137.87705l3.43616,-3.6833c3.33203,-4.58343 5.79342,-9.73327 7.25871,-15.1817l-10.69487,-11.15905l-14.31106,14.73948l14.31106,15.28457z" />
    <polygon fill="#E9B520"
      points="90.27882385253906,107.92576599121094 104.51899719238281,122.59184265136719 118.83067321777344,107.85301208496094 110.619140625,99.54173278808594 90.69407653808594,107.49795532226562 " />
    <path fill="#EE4649"
      d="m118.83068,137.87705l0.24338,0.25091c0.08531,-0.09534 0.16623,-0.19257 0.25028,-0.28791l-0.22832,-0.23522l-0.26533,0.27223z" />
  </g>
  <g>
    <path
      d="m259.96056,127.5543l-32.72539,0l0,51.04374l-23.23517,0l0,-102.92622c0,-6.61574 5.25858,-12.3812 11.87102,-12.3812l71.55634,0l0,20.00903l-60.19549,0l0,24.75579l45.10328,0l0,7.62948c0.0033,6.61574 -5.76215,11.86937 -12.37459,11.86937z" />
    <path
      d="m312.96905,75.67182c0,-8.14296 3.90142,-12.3812 11.86772,-12.3812l11.70262,0l0,115.30741l-23.57033,0l0,-102.92622z" />
    <path
      d="m460.17303,120.94516c0,28.31379 -12.20949,49.34317 -34.42101,55.27703c-5.76545,1.52557 -13.90676,2.3742 -24.41897,2.3742l-38.83261,0l0,-102.92622c0,-7.9729 3.90142,-12.21114 11.87102,-12.3812l33.23556,0c36.62681,0.00165 52.56601,20.85601 52.56601,57.65618zm-52.56436,-37.47545l-21.87636,0l0,74.26901l18.82193,0c23.40193,0 31.53993,-12.5463 31.53993,-36.79356c0,-23.06181 -7.12096,-37.47545 -28.4855,-37.47545z" />
    <path
      d="m486.32889,75.67182c0,-7.9729 3.90142,-12.21114 11.87102,-12.3812l71.55469,0l0,20.00903l-60.19549,0l0,24.75579l44.93487,0l0,7.62948c0.17171,7.9729 -3.89812,11.86772 -12.20949,11.86772l-32.72539,0l0,29.84596l60.19549,0l0,21.19778l-83.42571,0l0,-102.92457z" />
    <path
      d="m671.58122,123.32102c4.91682,1.69397 8.64488,4.40829 11.02238,7.9663c2.03409,3.90142 3.05113,9.66688 3.55966,17.12795l1.01704,22.54834c0.17006,3.56296 1.52557,6.10887 3.72971,7.63444l-25.94454,0c-1.18545,-2.20745 -1.69397,-4.5767 -1.86238,-6.95421c-0.51017,-1.69397 -0.84864,-8.30972 -1.0187,-19.50216c-0.84864,-13.90181 -3.39125,-18.3101 -17.29801,-18.3101l-25.0926,0l0,44.76481l-23.57033,0l0,-102.92622c0,-6.61574 5.25528,-12.3812 11.86937,-12.3812l43.74777,0c23.90715,0 37.13368,9.15505 37.13368,32.89709c0.00165,14.58534 -6.27067,24.07721 -17.29306,27.13494zm-22.7217,-40.02136l-29.16408,0l0,30.35283l27.80692,0c11.19244,0 17.46477,-4.06983 17.46477,-15.26227c-0.00165,-10.51221 -5.59374,-15.09056 -16.10761,-15.09056z" />
  </g>
</svg>