<?xml version="1.0" standalone="no"?>
<!DOCTYPE svg PUBLIC "-//W3C//DTD SVG 20010904//EN"
 "http://www.w3.org/TR/2001/REC-SVG-20010904/DTD/svg10.dtd">
<svg version="1.0" xmlns="http://www.w3.org/2000/svg"
 width="300.000000pt" height="300.000000pt" viewBox="0 0 300.000000 300.000000"
 preserveAspectRatio="xMidYMid meet">
<metadata>
Created by potrace 1.11, written by Peter Selinger 2001-2013
</metadata>
<g transform="translate(0.000000,300.000000) scale(0.100000,-0.100000)"
fill="#000000" stroke="none">
<path d="M2145 2864 c-181 -73 -460 -186 -620 -249 -159 -64 -303 -122 -320
-130 -16 -7 -120 -49 -230 -93 -110 -44 -211 -86 -225 -94 -216 -116 -326
-365 -265 -597 22 -84 21 -83 245 -456 106 -176 201 -334 211 -352 10 -17 30
-50 44 -73 14 -23 34 -56 44 -73 16 -28 175 -295 201 -337 5 -8 61 -103 126
-210 64 -107 118 -197 120 -199 8 -9 135 79 180 125 99 103 146 228 140 379
-5 117 -16 147 -154 406 l-50 95 135 69 c151 78 237 147 304 247 40 58 84 148
72 148 -3 0 -1 6 5 13 17 20 33 134 31 216 -2 64 -20 165 -31 176 -3 3 -309
-116 -383 -149 -16 -7 -171 -69 -343 -137 -231 -91 -324 -132 -353 -157 -42
-36 -119 -142 -119 -164 -1 -7 -8 -24 -16 -38 -14 -23 -15 -20 -10 55 12 198
120 369 312 495 39 25 180 94 315 154 134 59 252 112 262 117 10 5 57 27 105
48 403 178 469 219 551 340 97 144 128 308 87 463 -13 50 -33 100 -39 97 -1
-1 -150 -61 -332 -135z"/>
</g>
</svg>
