<?xml version="1.0" encoding="utf-8"?>
<svg version="1.1" id="Layer_1" xmlns="http://www.w3.org/2000/svg" xmlns:xlink="http://www.w3.org/1999/xlink" x="0px"
	y="0px" width="800px" height="600px" viewBox="0 0 800 600" enable-background="new 0 0 800 600" xml:space="preserve">
	<g>
		<polygon fill="#FDBC3D" points="407.815,221.734 406.251,222.357 373.398,235.475 383.492,245.914 	" />
		<path fill="#8EC63F" d="M360.697,174.571l-23.126,24.048l16.367,16.816c13.788-11.428,28.429-16.743,29.737-17.199L360.697,174.571
		z" />
		<polygon fill="#208ECB" points="360.697,174.571 337.148,151.188 314.466,174.782 337.571,198.619 	" />
		<path fill="#273C8B" d="M328.22,141.993l-11.069,4.45c-7.153,2.875-13.417,6.935-18.719,11.825l16.035,16.514l22.682-23.594
		L328.22,141.993z" />
		<path fill="#EE4649"
			d="M453.059,270.565l-0.388-0.4l-9.011,9.049C446.683,276.797,450.494,273.379,453.059,270.565z" />
		<path fill="#F6944E" d="M425.98,289.631l5.912-2.99c4.218-2.134,8.143-4.63,11.768-7.427l9.011-9.049l-22.815-24.368
		l-23.105,24.028L425.98,289.631z" />
		<polygon fill="#FFC951" points="407.153,222.416 383.492,245.914 406.75,269.826 429.855,245.797 	" />
		<path fill="#F6CC18" d="M373.369,235.487l-17.945,7.164c-5.263,1.55-9.719,4.531-13.445,8.1l18.409,18.958l23.105-23.795
		L373.369,235.487z" />
		<path fill="#C5D82D" d="M353.917,215.454l-16.345-16.835l-23.33,23.797l18.787,19.117
		C338.296,230.552,346.06,221.969,353.917,215.454z" />
		<polygon fill="#0D77B3" points="314.466,174.782 291.34,198.599 314.241,222.416 337.571,198.619 	" />
		<path fill="#2A377E"
			d="M314.466,174.782l-16.035-16.514c-8.671,8.007-14.739,18.289-17.685,29.421l10.593,10.91L314.466,174.782z" />
		<path fill="#DA2128"
			d="M414.403,309.346l-7.766,7.998l23.608,24.546l0,0c-1.007-3.096-2.559-7.074-4.112-10.055L414.403,309.346z" />
		<polygon fill="#F8A561" points="408.684,298.38 425.954,289.644 406.75,269.826 383.624,293.643 406.638,317.344 414.403,309.346 	
		" />
		<polygon fill="#FDBC3D" points="383.492,245.914 360.387,269.709 383.624,293.643 406.75,269.826 	" />
		<path fill="#FAD412" d="M341.979,250.751c-10.698,10.319-15.407,25.583-15.407,25.583c-0.478-7.342,0.094-14.076,1.445-20.243
		l-13.571,13.937l22.815,23.498l23.126-23.817L341.979,250.751z" />
		<path fill="#C4D52D" d="M333.028,241.533l-18.787-19.117l-21.188,21.82l5.911,9.85l15.481,15.943l13.583-13.991
		C329.169,250.858,330.935,245.928,333.028,241.533z" />
		<path fill="#1B80C1" d="M291.34,198.599l-12.177,12.307c1.036,8.131,3.745,16.422,8.279,23.977l5.611,9.353l21.188-21.82
		L291.34,198.599z" />
		<path fill="#1A4685" d="M280.747,187.689c-1.945,7.441-2.546,15.438-1.583,23.217l12.177-12.307L280.747,187.689z" />
		<path fill="#B12026"
			d="M406.638,364.978l19.932,20.76c6.604-13.319,8.206-29.102,3.677-43.848l-0.482-0.496L406.638,364.978z" />
		<polygon fill="#E42028" points="406.638,317.344 383.624,341.277 406.638,364.978 429.764,341.394 	" />
		<polygon fill="#F16B4E" points="383.624,293.643 360.387,317.344 383.624,341.277 406.638,317.344 	" />
		<polygon fill="#FAD412" points="360.387,269.709 337.261,293.526 360.387,317.344 383.624,293.643 	" />
		<polygon fill="#FFC951" points="314.446,270.029 310.791,273.793 328.22,302.838 337.261,293.526 	" />
		<polygon fill="#FFC951" points="298.965,254.085 310.791,273.793 314.446,270.029 	" />
		<path fill="#981C20" d="M426.569,385.737l-19.932-20.76l-23.125,23.817l20.594,21.209
		C414.076,404.023,421.689,395.511,426.569,385.737z" />
		<polygon fill="#C92039"
			points="383.624,341.277 363.552,361.719 373.792,378.784 383.513,388.795 406.638,364.978 	" />
		<polygon fill="#F05B41" points="360.387,317.344 345.886,332.279 363.552,361.719 383.624,341.277 	" />
		<polygon fill="#F6CC18" points="337.261,293.526 328.22,302.838 345.886,332.279 360.387,317.344 	" />
		<path fill="#7A1319" d="M381.218,391.158l14.194,23.655l6.543-3.566c0.683-0.372,1.489-0.85,2.151-1.243l-20.594-21.209
		L381.218,391.158z" />
		<polygon fill="#981C20" points="373.792,378.784 381.218,391.158 383.513,388.795 	" />
		<path fill="#15796E" d="M498.922,127.031l16.983-17.491c0.81-3.624,1.308-7.327,1.503-11.063l-18.196-18.741l-23.085,23.817
		L498.922,127.031z" />
		<polygon fill="#29B364" points="476.106,103.532 499.212,79.736 494.849,75.01 461.448,88.437 	" />
		<path fill="#21A29F" d="M505.261,133.559c4.875-6.909,8.663-15.834,10.645-24.019l-16.983,17.491L505.261,133.559z" />
		<path fill="#12827F"
			d="M517.408,98.477c0.49-10.012-1.248-20.505-5.561-30.3l-2.248,0.904l-10.388,10.656L517.408,98.477z" />
		<polygon fill="#12827F" points="509.6,69.081 494.849,75.01 499.212,79.736 	" />
		<polygon fill="#0C6355" points="475.796,150.848 498.922,127.031 476.106,103.575 453.001,127.371 	" />
		<polygon fill="#1B974D" points="429.875,103.554 453.001,127.371 476.086,103.554 461.419,88.448 433.738,99.576 	" />
		<polygon fill="#16669F" points="433.738,99.576 428.182,101.809 429.875,103.554 	" />
		<path fill="#44BFBD"
			d="M479.884,155.058c10.474-5.074,19.072-12.571,25.377-21.499l-6.339-6.528l-23.126,23.817L479.884,155.058z" />
		<polygon fill="#0D5650"
			points="447.695,169.541 465.315,161.642 475.796,150.848 453.001,127.371 429.875,151.188 	" />
		<polygon fill="#3FAF49" points="453.001,127.371 429.875,103.554 406.638,127.256 429.855,151.167 	" />
		<polygon fill="#0D77B3" points="429.875,103.554 428.182,101.809 394.753,115.248 406.638,127.256 	" />
		<path fill="#0C6355"
			d="M478.075,155.923c0.562-0.251,1.258-0.599,1.809-0.865l-4.088-4.21l-10.48,10.794L478.075,155.923z" />
		<polygon fill="#12827F" points="447.695,169.541 429.875,151.188 406.75,175.005 415.469,183.986 	" />
		<polygon fill="#4EB648" points="429.875,151.188 406.638,127.256 383.624,151.188 406.729,174.985 	" />
		<polygon fill="#16669F" points="406.638,127.256 394.753,115.248 361.486,128.621 383.624,151.188 	" />
		<path fill="#FBB139" d="M469.721,240.09c3.033-11.389,3.362-23.943,0.563-35.931L452.671,222.3L469.721,240.09z" />
		<path fill="#E2B523"
			d="M439.58,209.05l13.091,13.25l17.613-18.141c-0.524-2.214-1.15-4.42-1.891-6.615L439.58,209.05z" />
		<polygon fill="#189590" points="406.75,175.005 384.593,197.825 415.469,183.986 	" />
		<polygon fill="#8EC63F" points="384.521,197.858 406.75,175.005 383.624,151.188 360.697,174.571 383.675,198.236 	" />
		<polygon fill="#0D77B3"
			points="383.624,151.188 361.486,128.621 357.876,130.072 337.148,151.188 360.697,174.571 	" />
		<polygon fill="#1953A2" points="357.876,130.072 328.22,141.993 337.148,151.188 	" />
		<path fill="#ED3551" d="M453.458,270.106c1.411-1.575,3.427-4.13,4.69-5.813l-5.055,5.438L453.458,270.106z" />
		<path fill="#F8A561" d="M452.671,270.165l5.478-5.872c5.312-7.307,9.236-15.517,11.572-24.203l-17.05-17.79l-22.815,23.498
		L452.671,270.165z" />
		<polygon fill="#E9B520" points="407.153,222.416 429.855,245.797 452.671,222.3 439.58,209.05 407.815,221.734 	" />
		<path fill="#EE4649"
			d="M452.671,270.165l0.388,0.4c0.136-0.152,0.265-0.307,0.399-0.459l-0.364-0.375L452.671,270.165z" />
	</g>
	<g>
		<path fill="#333333" d="M241.894,500.163h-19.821v30.916H208v-62.34c0-4.007,3.185-7.499,7.19-7.499h43.34v12.119h-36.459v14.994
		h27.318v4.621C249.391,496.981,245.899,500.163,241.894,500.163z" />
	</g>
	<g>
		<path fill="#333333" d="M295.504,468.739c0-4.932,2.363-7.499,7.188-7.499h7.088v69.839h-14.276V468.739z" />

	</g>
	<g>
		<path fill="#333333" d="M406.834,496.16c0,17.149-7.395,29.886-20.848,33.48c-3.492,0.924-8.423,1.438-14.79,1.438h-23.52v-62.34
		c0-4.829,2.363-7.396,7.19-7.499h20.13C397.18,461.24,406.834,473.871,406.834,496.16z M374.997,473.462h-13.25v44.983h11.4
		c14.174,0,19.103-7.599,19.103-22.285C392.25,482.192,387.937,473.462,374.997,473.462z" />

	</g>
	<g>
		<path fill="#333333" d="M444.629,468.739c0-4.829,2.363-7.396,7.19-7.499h43.339v12.119h-36.459v14.994h27.216v4.621
		c0.104,4.829-2.361,7.188-7.395,7.188h-19.821v18.077h36.459v12.839h-50.529V468.739z" />

	</g>
	<g>
		<path fill="#333333" d="M578.656,497.599c2.978,1.026,5.236,2.67,6.676,4.825c1.232,2.363,1.848,5.855,2.156,10.374l0.616,13.657
		c0.103,2.158,0.924,3.7,2.259,4.624h-15.714c-0.718-1.337-1.026-2.772-1.128-4.212c-0.309-1.026-0.514-5.033-0.617-11.812
		c-0.514-8.42-2.054-11.09-10.477-11.09h-15.198v27.113h-14.276v-62.34c0-4.007,3.183-7.499,7.189-7.499h26.497
		c14.48,0,22.491,5.545,22.491,19.925C589.131,489.998,585.332,495.747,578.656,497.599z M564.894,473.359h-17.664v18.384h16.842
		c6.779,0,10.578-2.465,10.578-9.244C574.649,476.132,571.262,473.359,564.894,473.359z" />
	</g>
</svg>